<svg width="23" height="23" viewBox="0 0 23 23" fill="none" xmlns="http://www.w3.org/2000/svg">
<path fill-rule="evenodd" clip-rule="evenodd" d="M11.5 2.4962L16.1387 5.26237V5.59961C16.1387 9.09601 14.961 11.3822 14.2647 12.6884C14.7017 13.4186 15.1366 14.1701 15.4742 14.8999C15.8534 15.7198 16.1387 16.5711 16.1387 17.3818V17.7191L11.5 20.4853L6.86123 17.7191V17.3818C6.86123 16.5039 7.26943 15.4424 7.68956 14.5593C8.03881 13.8251 8.43056 13.146 8.70798 12.6848C7.76403 10.8787 6.86123 8.86812 6.86123 5.59961V5.26237L11.5 2.4962ZM9.36082 13.9224C9.16643 14.2672 8.9565 14.6603 8.7619 15.0694C8.41663 15.7952 8.15344 16.5035 8.07374 17.0595L10.8638 18.7233C10.6998 16.7158 10.0799 15.3098 9.36082 13.9224ZM12.0581 18.7698L14.9301 17.0572C14.8701 16.5745 14.6839 16.02 14.3964 15.3985C14.0452 14.6392 13.5711 13.8376 13.074 13.0124C13.0305 12.9403 12.9868 12.8679 12.9431 12.7954C12.4737 12.0176 11.9929 11.2206 11.6217 10.465C11.2793 9.76791 10.9998 9.04783 10.9256 8.3605L8.08504 6.66663C8.26247 9.198 9.06442 10.8217 9.91489 12.4283C9.96308 12.5193 10.0115 12.6103 10.06 12.7015C10.9491 14.3742 11.8681 16.103 12.0581 18.7698ZM8.61426 5.59961L11.5 7.32042L14.3857 5.59961L11.5 3.87881L8.61426 5.59961ZM14.9104 6.66927L12.119 8.33388C12.1856 8.78267 12.3818 9.31893 12.6876 9.9415C12.9312 10.4374 13.2274 10.956 13.5468 11.4937C14.1016 10.383 14.7445 8.81742 14.9104 6.66927Z" fill="#B2B2B2"/>
</svg>
