<svg xmlns="http://www.w3.org/2000/svg" xmlns:xlink="http://www.w3.org/1999/xlink" viewBox="0 0 418.31 733.13"><defs><style>.cls-1{fill:url(#linear-gradient);}.cls-2{fill:url(#linear-gradient-2);}.cls-3{fill:url(#linear-gradient-3);}.cls-4{fill:url(#linear-gradient-4);}.cls-5{fill:url(#linear-gradient-5);}</style><linearGradient id="linear-gradient" x1="25.55" y1="138.45" x2="421.77" y2="44.77" gradientUnits="userSpaceOnUse"><stop offset="0" stop-color="#f9b294"/><stop offset="0.26" stop-color="#f2727f"/><stop offset="0.5" stop-color="#c06c86"/><stop offset="0.78" stop-color="#705c79"/><stop offset="1" stop-color="#325d7f"/></linearGradient><linearGradient id="linear-gradient-2" x1="0.39" y1="144.4" x2="396.61" y2="50.71" xlink:href="#linear-gradient"/><linearGradient id="linear-gradient-3" x1="-33.3" y1="664.96" x2="489.91" y2="541.25" xlink:href="#linear-gradient"/><linearGradient id="linear-gradient-4" x1="101.36" y1="164.96" x2="256.4" y2="568.85" gradientTransform="matrix(-1, 0, 0, 1, 418.31, 0)" xlink:href="#linear-gradient"/><linearGradient id="linear-gradient-5" x1="260.94" y1="569.73" x2="137.16" y2="179.53" xlink:href="#linear-gradient"/></defs><title>Asset 4</title><g id="Layer_2" data-name="Layer 2"><g id="Layer_2_copy" data-name="Layer 2 copy"><polygon class="cls-1" points="50.76 95.03 209.16 190.07 367.55 95.03 209.16 0 50.76 95.03"/><polygon class="cls-2" points="50.76 95.03 209.16 190.07 367.55 95.03 209.16 0 50.76 95.03"/><polygon class="cls-3" points="0 607.63 209.16 733.13 418.31 607.63 209.16 482.14 0 607.63"/><path class="cls-4" d="M367.55,95l-158.39,95v27.15c0,108.61-158.4,258-158.4,393.72v27.15l158.4,95V706c0-298.69,158.39-285.11,158.39-583.79Z"/><path class="cls-5" d="M50.76,95l158.4,95v27.15c0,108.61,158.39,258,158.39,393.72v27.15l-158.39,95V706c0-298.69-158.4-285.11-158.4-583.79Z"/></g></g></svg>